<?xml version="1.0" encoding="UTF-8" ?>
<svg version="1.1" width="90" height="60" xmlns="http://www.w3.org/2000/svg" shape-rendering="crispEdges">
<rect x="0" y="0" width="90" height="1" fill="#FFFFFF" />
<rect x="0" y="1" width="1" height="59" fill="#FFFFFF" />
<rect x="1" y="1" width="88" height="3" fill="#000000" />
<rect x="89" y="1" width="1" height="59" fill="#FFFFFF" />
<rect x="1" y="4" width="3" height="55" fill="#000000" />
<rect x="4" y="4" width="2" height="1" fill="#FFFFFF" />
<rect x="6" y="4" width="53" height="1" fill="#000000" />
<rect x="59" y="4" width="5" height="1" fill="#FFFFFF" />
<rect x="64" y="4" width="7" height="1" fill="#000000" />
<rect x="71" y="4" width="3" height="1" fill="#FFFFFF" />
<rect x="74" y="4" width="15" height="5" fill="#000000" />
<rect x="4" y="5" width="2" height="10" fill="#000000" />
<rect x="6" y="5" width="2" height="1" fill="#FFFFFF" />
<rect x="8" y="5" width="50" height="1" fill="#000000" />
<rect x="58" y="5" width="1" height="2" fill="#FFFFFF" />
<rect x="59" y="5" width="11" height="1" fill="#000000" />
<rect x="70" y="5" width="1" height="1" fill="#FFFFFF" />
<rect x="71" y="5" width="3" height="3" fill="#000000" />
<rect x="6" y="6" width="2" height="8" fill="#000000" />
<rect x="8" y="6" width="2" height="1" fill="#FFFFFF" />
<rect x="10" y="6" width="45" height="1" fill="#000000" />
<rect x="55" y="6" width="3" height="1" fill="#FFFFFF" />
<rect x="59" y="6" width="2" height="1" fill="#FFFFFF" />
<rect x="61" y="6" width="8" height="1" fill="#000000" />
<rect x="69" y="6" width="1" height="2" fill="#FFFFFF" />
<rect x="70" y="6" width="1" height="1" fill="#000000" />
<rect x="8" y="7" width="2" height="6" fill="#000000" />
<rect x="10" y="7" width="2" height="1" fill="#FFFFFF" />
<rect x="12" y="7" width="42" height="1" fill="#000000" />
<rect x="54" y="7" width="1" height="1" fill="#FFFFFF" />
<rect x="55" y="7" width="11" height="1" fill="#000000" />
<rect x="66" y="7" width="3" height="1" fill="#FFFFFF" />
<rect x="70" y="7" width="1" height="1" fill="#FFFFFF" />
<rect x="10" y="8" width="2" height="4" fill="#000000" />
<rect x="12" y="8" width="2" height="1" fill="#FFFFFF" />
<rect x="14" y="8" width="39" height="1" fill="#000000" />
<rect x="53" y="8" width="1" height="2" fill="#FFFFFF" />
<rect x="54" y="8" width="10" height="1" fill="#000000" />
<rect x="64" y="8" width="2" height="1" fill="#FFFFFF" />
<rect x="66" y="8" width="5" height="2" fill="#000000" />
<rect x="71" y="8" width="2" height="1" fill="#FFFFFF" />
<rect x="73" y="8" width="1" height="1" fill="#000000" />
<rect x="12" y="9" width="2" height="2" fill="#000000" />
<rect x="14" y="9" width="2" height="2" fill="#FFFFFF" />
<rect x="16" y="9" width="36" height="1" fill="#000000" />
<rect x="52" y="9" width="1" height="1" fill="#FFFFFF" />
<rect x="54" y="9" width="10" height="1" fill="#FFFFFF" />
<rect x="64" y="9" width="1" height="4" fill="#000000" />
<rect x="65" y="9" width="1" height="1" fill="#FFFFFF" />
<rect x="71" y="9" width="2" height="3" fill="#000000" />
<rect x="73" y="9" width="4" height="1" fill="#FFFFFF" />
<rect x="77" y="9" width="12" height="50" fill="#000000" />
<rect x="16" y="10" width="1" height="2" fill="#FFFFFF" />
<rect x="17" y="10" width="33" height="1" fill="#000000" />
<rect x="50" y="10" width="2" height="1" fill="#FFFFFF" />
<rect x="52" y="10" width="6" height="4" fill="#000000" />
<rect x="58" y="10" width="1" height="1" fill="#FFFFFF" />
<rect x="59" y="10" width="5" height="1" fill="#000000" />
<rect x="65" y="10" width="1" height="4" fill="#000000" />
<rect x="66" y="10" width="1" height="1" fill="#FFFFFF" />
<rect x="67" y="10" width="4" height="1" fill="#000000" />
<rect x="73" y="10" width="4" height="49" fill="#000000" />
<rect x="12" y="11" width="2" height="1" fill="#FFFFFF" />
<rect x="14" y="11" width="2" height="48" fill="#000000" />
<rect x="17" y="11" width="24" height="1" fill="#000000" />
<rect x="41" y="11" width="9" height="1" fill="#FFFFFF" />
<rect x="50" y="11" width="2" height="5" fill="#000000" />
<rect x="58" y="11" width="1" height="17" fill="#000000" />
<rect x="59" y="11" width="1" height="1" fill="#FFFFFF" />
<rect x="60" y="11" width="4" height="1" fill="#000000" />
<rect x="66" y="11" width="1" height="4" fill="#000000" />
<rect x="67" y="11" width="3" height="1" fill="#FFFFFF" />
<rect x="70" y="11" width="1" height="1" fill="#000000" />
<rect x="10" y="12" width="2" height="1" fill="#FFFFFF" />
<rect x="12" y="12" width="2" height="47" fill="#000000" />
<rect x="16" y="12" width="1" height="47" fill="#000000" />
<rect x="17" y="12" width="1" height="1" fill="#FFFFFF" />
<rect x="18" y="12" width="21" height="1" fill="#000000" />
<rect x="39" y="12" width="2" height="1" fill="#FFFFFF" />
<rect x="41" y="12" width="9" height="5" fill="#000000" />
<rect x="59" y="12" width="1" height="15" fill="#000000" />
<rect x="60" y="12" width="2" height="1" fill="#FFFFFF" />
<rect x="62" y="12" width="2" height="1" fill="#000000" />
<rect x="67" y="12" width="3" height="4" fill="#000000" />
<rect x="70" y="12" width="3" height="1" fill="#FFFFFF" />
<rect x="8" y="13" width="2" height="1" fill="#FFFFFF" />
<rect x="10" y="13" width="2" height="46" fill="#000000" />
<rect x="17" y="13" width="1" height="46" fill="#000000" />
<rect x="18" y="13" width="1" height="2" fill="#FFFFFF" />
<rect x="19" y="13" width="19" height="1" fill="#000000" />
<rect x="38" y="13" width="1" height="1" fill="#FFFFFF" />
<rect x="39" y="13" width="2" height="6" fill="#000000" />
<rect x="60" y="13" width="2" height="14" fill="#000000" />
<rect x="62" y="13" width="3" height="1" fill="#FFFFFF" />
<rect x="70" y="13" width="3" height="3" fill="#000000" />
<rect x="6" y="14" width="2" height="1" fill="#FFFFFF" />
<rect x="8" y="14" width="2" height="45" fill="#000000" />
<rect x="19" y="14" width="17" height="1" fill="#000000" />
<rect x="36" y="14" width="2" height="1" fill="#FFFFFF" />
<rect x="38" y="14" width="1" height="6" fill="#000000" />
<rect x="52" y="14" width="2" height="1" fill="#000000" />
<rect x="54" y="14" width="3" height="1" fill="#FFFFFF" />
<rect x="57" y="14" width="1" height="14" fill="#000000" />
<rect x="62" y="14" width="3" height="9" fill="#000000" />
<rect x="65" y="14" width="1" height="1" fill="#FFFFFF" />
<rect x="4" y="15" width="2" height="1" fill="#FFFFFF" />
<rect x="6" y="15" width="2" height="44" fill="#000000" />
<rect x="18" y="15" width="1" height="44" fill="#000000" />
<rect x="19" y="15" width="1" height="2" fill="#FFFFFF" />
<rect x="20" y="15" width="15" height="1" fill="#000000" />
<rect x="35" y="15" width="1" height="1" fill="#FFFFFF" />
<rect x="36" y="15" width="2" height="5" fill="#000000" />
<rect x="52" y="15" width="1" height="1" fill="#000000" />
<rect x="53" y="15" width="1" height="1" fill="#FFFFFF" />
<rect x="54" y="15" width="3" height="2" fill="#000000" />
<rect x="65" y="15" width="1" height="7" fill="#000000" />
<rect x="66" y="15" width="1" height="1" fill="#FFFFFF" />
<rect x="4" y="16" width="2" height="43" fill="#000000" />
<rect x="20" y="16" width="1" height="1" fill="#FFFFFF" />
<rect x="21" y="16" width="13" height="1" fill="#000000" />
<rect x="34" y="16" width="1" height="1" fill="#FFFFFF" />
<rect x="35" y="16" width="1" height="5" fill="#000000" />
<rect x="50" y="16" width="3" height="1" fill="#FFFFFF" />
<rect x="53" y="16" width="1" height="1" fill="#000000" />
<rect x="66" y="16" width="1" height="5" fill="#000000" />
<rect x="67" y="16" width="4" height="1" fill="#FFFFFF" />
<rect x="71" y="16" width="2" height="1" fill="#000000" />
<rect x="19" y="17" width="2" height="42" fill="#000000" />
<rect x="21" y="17" width="1" height="1" fill="#FFFFFF" />
<rect x="22" y="17" width="11" height="1" fill="#000000" />
<rect x="33" y="17" width="1" height="1" fill="#FFFFFF" />
<rect x="34" y="17" width="1" height="4" fill="#000000" />
<rect x="41" y="17" width="6" height="1" fill="#000000" />
<rect x="47" y="17" width="3" height="1" fill="#FFFFFF" />
<rect x="50" y="17" width="3" height="4" fill="#000000" />
<rect x="53" y="17" width="2" height="1" fill="#FFFFFF" />
<rect x="55" y="17" width="2" height="11" fill="#000000" />
<rect x="67" y="17" width="4" height="3" fill="#000000" />
<rect x="71" y="17" width="2" height="1" fill="#FFFFFF" />
<rect x="21" y="18" width="1" height="41" fill="#000000" />
<rect x="22" y="18" width="1" height="1" fill="#FFFFFF" />
<rect x="23" y="18" width="9" height="1" fill="#000000" />
<rect x="32" y="18" width="1" height="2" fill="#FFFFFF" />
<rect x="33" y="18" width="1" height="3" fill="#000000" />
<rect x="41" y="18" width="5" height="1" fill="#000000" />
<rect x="46" y="18" width="1" height="1" fill="#FFFFFF" />
<rect x="47" y="18" width="3" height="2" fill="#000000" />
<rect x="53" y="18" width="2" height="11" fill="#000000" />
<rect x="71" y="18" width="2" height="6" fill="#000000" />
<rect x="22" y="19" width="1" height="40" fill="#000000" />
<rect x="23" y="19" width="1" height="1" fill="#FFFFFF" />
<rect x="24" y="19" width="8" height="1" fill="#000000" />
<rect x="39" y="19" width="1" height="1" fill="#000000" />
<rect x="40" y="19" width="6" height="1" fill="#FFFFFF" />
<rect x="46" y="19" width="1" height="1" fill="#000000" />
<rect x="23" y="20" width="1" height="39" fill="#000000" />
<rect x="24" y="20" width="1" height="1" fill="#FFFFFF" />
<rect x="25" y="20" width="6" height="1" fill="#000000" />
<rect x="31" y="20" width="1" height="3" fill="#FFFFFF" />
<rect x="32" y="20" width="1" height="2" fill="#000000" />
<rect x="36" y="20" width="4" height="1" fill="#FFFFFF" />
<rect x="40" y="20" width="6" height="4" fill="#000000" />
<rect x="46" y="20" width="3" height="1" fill="#FFFFFF" />
<rect x="49" y="20" width="1" height="1" fill="#000000" />
<rect x="67" y="20" width="1" height="1" fill="#000000" />
<rect x="68" y="20" width="1" height="1" fill="#FFFFFF" />
<rect x="69" y="20" width="2" height="4" fill="#000000" />
<rect x="24" y="21" width="1" height="38" fill="#000000" />
<rect x="25" y="21" width="1" height="1" fill="#FFFFFF" />
<rect x="26" y="21" width="5" height="1" fill="#000000" />
<rect x="33" y="21" width="3" height="1" fill="#FFFFFF" />
<rect x="36" y="21" width="4" height="6" fill="#000000" />
<rect x="46" y="21" width="3" height="3" fill="#000000" />
<rect x="49" y="21" width="3" height="1" fill="#FFFFFF" />
<rect x="52" y="21" width="1" height="8" fill="#000000" />
<rect x="66" y="21" width="2" height="1" fill="#FFFFFF" />
<rect x="68" y="21" width="1" height="4" fill="#000000" />
<rect x="25" y="22" width="1" height="37" fill="#000000" />
<rect x="26" y="22" width="2" height="1" fill="#FFFFFF" />
<rect x="28" y="22" width="1" height="1" fill="#000000" />
<rect x="29" y="22" width="2" height="1" fill="#FFFFFF" />
<rect x="32" y="22" width="1" height="1" fill="#FFFFFF" />
<rect x="33" y="22" width="3" height="4" fill="#000000" />
<rect x="49" y="22" width="3" height="8" fill="#000000" />
<rect x="65" y="22" width="1" height="1" fill="#FFFFFF" />
<rect x="66" y="22" width="2" height="3" fill="#000000" />
<rect x="26" y="23" width="2" height="36" fill="#000000" />
<rect x="28" y="23" width="1" height="1" fill="#FFFFFF" />
<rect x="29" y="23" width="1" height="36" fill="#000000" />
<rect x="30" y="23" width="1" height="1" fill="#FFFFFF" />
<rect x="31" y="23" width="2" height="1" fill="#000000" />
<rect x="62" y="23" width="2" height="1" fill="#000000" />
<rect x="64" y="23" width="1" height="1" fill="#FFFFFF" />
<rect x="65" y="23" width="1" height="3" fill="#000000" />
<rect x="28" y="24" width="1" height="35" fill="#000000" />
<rect x="30" y="24" width="1" height="35" fill="#000000" />
<rect x="31" y="24" width="1" height="1" fill="#FFFFFF" />
<rect x="32" y="24" width="1" height="1" fill="#000000" />
<rect x="40" y="24" width="4" height="1" fill="#000000" />
<rect x="44" y="24" width="4" height="1" fill="#FFFFFF" />
<rect x="48" y="24" width="1" height="7" fill="#000000" />
<rect x="62" y="24" width="1" height="2" fill="#000000" />
<rect x="63" y="24" width="1" height="3" fill="#FFFFFF" />
<rect x="64" y="24" width="1" height="2" fill="#000000" />
<rect x="69" y="24" width="1" height="1" fill="#000000" />
<rect x="70" y="24" width="3" height="1" fill="#FFFFFF" />
<rect x="31" y="25" width="1" height="1" fill="#000000" />
<rect x="32" y="25" width="1" height="1" fill="#FFFFFF" />
<rect x="40" y="25" width="3" height="1" fill="#000000" />
<rect x="43" y="25" width="1" height="1" fill="#FFFFFF" />
<rect x="44" y="25" width="4" height="6" fill="#000000" />
<rect x="66" y="25" width="4" height="1" fill="#FFFFFF" />
<rect x="70" y="25" width="3" height="6" fill="#000000" />
<rect x="31" y="26" width="1" height="1" fill="#FFFFFF" />
<rect x="32" y="26" width="1" height="1" fill="#000000" />
<rect x="33" y="26" width="1" height="1" fill="#FFFFFF" />
<rect x="34" y="26" width="2" height="1" fill="#000000" />
<rect x="40" y="26" width="2" height="1" fill="#000000" />
<rect x="42" y="26" width="1" height="2" fill="#FFFFFF" />
<rect x="43" y="26" width="1" height="4" fill="#000000" />
<rect x="62" y="26" width="1" height="1" fill="#FFFFFF" />
<rect x="64" y="26" width="2" height="1" fill="#FFFFFF" />
<rect x="66" y="26" width="4" height="6" fill="#000000" />
<rect x="31" y="27" width="1" height="32" fill="#000000" />
<rect x="32" y="27" width="1" height="1" fill="#FFFFFF" />
<rect x="33" y="27" width="1" height="1" fill="#000000" />
<rect x="34" y="27" width="3" height="1" fill="#FFFFFF" />
<rect x="37" y="27" width="2" height="1" fill="#000000" />
<rect x="39" y="27" width="3" height="1" fill="#FFFFFF" />
<rect x="59" y="27" width="3" height="1" fill="#FFFFFF" />
<rect x="62" y="27" width="4" height="5" fill="#000000" />
<rect x="32" y="28" width="1" height="31" fill="#000000" />
<rect x="33" y="28" width="1" height="3" fill="#FFFFFF" />
<rect x="34" y="28" width="3" height="3" fill="#000000" />
<rect x="37" y="28" width="2" height="1" fill="#FFFFFF" />
<rect x="39" y="28" width="4" height="1" fill="#000000" />
<rect x="55" y="28" width="1" height="1" fill="#000000" />
<rect x="56" y="28" width="3" height="1" fill="#FFFFFF" />
<rect x="59" y="28" width="3" height="4" fill="#000000" />
<rect x="37" y="29" width="5" height="8" fill="#000000" />
<rect x="42" y="29" width="1" height="1" fill="#FFFFFF" />
<rect x="52" y="29" width="4" height="1" fill="#FFFFFF" />
<rect x="56" y="29" width="3" height="1" fill="#000000" />
<rect x="42" y="30" width="1" height="11" fill="#000000" />
<rect x="43" y="30" width="1" height="1" fill="#FFFFFF" />
<rect x="49" y="30" width="3" height="1" fill="#FFFFFF" />
<rect x="52" y="30" width="3" height="5" fill="#000000" />
<rect x="55" y="30" width="3" height="1" fill="#FFFFFF" />
<rect x="58" y="30" width="1" height="1" fill="#000000" />
<rect x="33" y="31" width="1" height="28" fill="#000000" />
<rect x="34" y="31" width="1" height="3" fill="#FFFFFF" />
<rect x="35" y="31" width="2" height="3" fill="#000000" />
<rect x="43" y="31" width="1" height="10" fill="#000000" />
<rect x="44" y="31" width="5" height="1" fill="#FFFFFF" />
<rect x="49" y="31" width="3" height="2" fill="#000000" />
<rect x="55" y="31" width="3" height="4" fill="#000000" />
<rect x="58" y="31" width="1" height="1" fill="#FFFFFF" />
<rect x="70" y="31" width="3" height="1" fill="#FFFFFF" />
<rect x="44" y="32" width="4" height="9" fill="#000000" />
<rect x="48" y="32" width="1" height="1" fill="#FFFFFF" />
<rect x="58" y="32" width="1" height="8" fill="#000000" />
<rect x="59" y="32" width="2" height="1" fill="#FFFFFF" />
<rect x="61" y="32" width="4" height="1" fill="#000000" />
<rect x="65" y="32" width="5" height="1" fill="#FFFFFF" />
<rect x="70" y="32" width="3" height="4" fill="#000000" />
<rect x="48" y="33" width="1" height="9" fill="#000000" />
<rect x="49" y="33" width="1" height="1" fill="#FFFFFF" />
<rect x="50" y="33" width="2" height="1" fill="#000000" />
<rect x="59" y="33" width="2" height="7" fill="#000000" />
<rect x="61" y="33" width="4" height="1" fill="#FFFFFF" />
<rect x="65" y="33" width="5" height="2" fill="#000000" />
<rect x="34" y="34" width="1" height="25" fill="#000000" />
<rect x="35" y="34" width="1" height="2" fill="#FFFFFF" />
<rect x="36" y="34" width="1" height="2" fill="#000000" />
<rect x="49" y="34" width="1" height="9" fill="#000000" />
<rect x="50" y="34" width="1" height="1" fill="#FFFFFF" />
<rect x="51" y="34" width="1" height="1" fill="#000000" />
<rect x="61" y="34" width="3" height="12" fill="#000000" />
<rect x="64" y="34" width="1" height="1" fill="#FFFFFF" />
<rect x="50" y="35" width="1" height="8" fill="#000000" />
<rect x="51" y="35" width="1" height="1" fill="#FFFFFF" />
<rect x="52" y="35" width="2" height="1" fill="#000000" />
<rect x="54" y="35" width="2" height="1" fill="#FFFFFF" />
<rect x="56" y="35" width="2" height="6" fill="#000000" />
<rect x="64" y="35" width="1" height="24" fill="#000000" />
<rect x="65" y="35" width="4" height="1" fill="#FFFFFF" />
<rect x="69" y="35" width="1" height="1" fill="#000000" />
<rect x="35" y="36" width="1" height="23" fill="#000000" />
<rect x="36" y="36" width="1" height="1" fill="#FFFFFF" />
<rect x="51" y="36" width="1" height="7" fill="#000000" />
<rect x="52" y="36" width="2" height="1" fill="#FFFFFF" />
<rect x="54" y="36" width="2" height="5" fill="#000000" />
<rect x="65" y="36" width="4" height="23" fill="#000000" />
<rect x="69" y="36" width="4" height="1" fill="#FFFFFF" />
<rect x="36" y="37" width="1" height="22" fill="#000000" />
<rect x="37" y="37" width="1" height="1" fill="#FFFFFF" />
<rect x="38" y="37" width="4" height="1" fill="#000000" />
<rect x="52" y="37" width="2" height="6" fill="#000000" />
<rect x="69" y="37" width="4" height="22" fill="#000000" />
<rect x="37" y="38" width="1" height="21" fill="#000000" />
<rect x="38" y="38" width="1" height="4" fill="#FFFFFF" />
<rect x="39" y="38" width="3" height="1" fill="#000000" />
<rect x="39" y="39" width="1" height="1" fill="#FFFFFF" />
<rect x="40" y="39" width="2" height="1" fill="#000000" />
<rect x="39" y="40" width="1" height="2" fill="#000000" />
<rect x="40" y="40" width="1" height="1" fill="#FFFFFF" />
<rect x="41" y="40" width="1" height="1" fill="#000000" />
<rect x="58" y="40" width="2" height="1" fill="#FFFFFF" />
<rect x="60" y="40" width="1" height="6" fill="#000000" />
<rect x="40" y="41" width="1" height="4" fill="#000000" />
<rect x="41" y="41" width="4" height="1" fill="#FFFFFF" />
<rect x="45" y="41" width="3" height="1" fill="#000000" />
<rect x="54" y="41" width="1" height="1" fill="#000000" />
<rect x="55" y="41" width="3" height="1" fill="#FFFFFF" />
<rect x="58" y="41" width="2" height="4" fill="#000000" />
<rect x="38" y="42" width="1" height="17" fill="#000000" />
<rect x="39" y="42" width="1" height="3" fill="#FFFFFF" />
<rect x="41" y="42" width="4" height="4" fill="#000000" />
<rect x="45" y="42" width="4" height="1" fill="#FFFFFF" />
<rect x="54" y="42" width="1" height="3" fill="#FFFFFF" />
<rect x="55" y="42" width="3" height="3" fill="#000000" />
<rect x="45" y="43" width="4" height="7" fill="#000000" />
<rect x="49" y="43" width="5" height="1" fill="#FFFFFF" />
<rect x="49" y="44" width="5" height="7" fill="#000000" />
<rect x="39" y="45" width="1" height="14" fill="#000000" />
<rect x="40" y="45" width="1" height="1" fill="#FFFFFF" />
<rect x="54" y="45" width="1" height="7" fill="#000000" />
<rect x="55" y="45" width="1" height="1" fill="#FFFFFF" />
<rect x="56" y="45" width="3" height="1" fill="#000000" />
<rect x="59" y="45" width="1" height="1" fill="#FFFFFF" />
<rect x="40" y="46" width="1" height="13" fill="#000000" />
<rect x="41" y="46" width="1" height="1" fill="#FFFFFF" />
<rect x="42" y="46" width="3" height="1" fill="#000000" />
<rect x="55" y="46" width="1" height="6" fill="#000000" />
<rect x="56" y="46" width="3" height="1" fill="#FFFFFF" />
<rect x="59" y="46" width="1" height="5" fill="#000000" />
<rect x="60" y="46" width="2" height="1" fill="#FFFFFF" />
<rect x="62" y="46" width="1" height="1" fill="#000000" />
<rect x="63" y="46" width="1" height="1" fill="#FFFFFF" />
<rect x="41" y="47" width="1" height="12" fill="#000000" />
<rect x="42" y="47" width="1" height="1" fill="#FFFFFF" />
<rect x="43" y="47" width="2" height="1" fill="#000000" />
<rect x="56" y="47" width="3" height="4" fill="#000000" />
<rect x="60" y="47" width="2" height="7" fill="#000000" />
<rect x="62" y="47" width="1" height="1" fill="#FFFFFF" />
<rect x="63" y="47" width="1" height="12" fill="#000000" />
<rect x="42" y="48" width="1" height="11" fill="#000000" />
<rect x="43" y="48" width="1" height="1" fill="#FFFFFF" />
<rect x="44" y="48" width="1" height="1" fill="#000000" />
<rect x="62" y="48" width="1" height="11" fill="#000000" />
<rect x="43" y="49" width="1" height="10" fill="#000000" />
<rect x="44" y="49" width="1" height="1" fill="#FFFFFF" />
<rect x="44" y="50" width="1" height="9" fill="#000000" />
<rect x="45" y="50" width="1" height="1" fill="#FFFFFF" />
<rect x="46" y="50" width="3" height="1" fill="#000000" />
<rect x="45" y="51" width="1" height="8" fill="#000000" />
<rect x="46" y="51" width="8" height="1" fill="#FFFFFF" />
<rect x="56" y="51" width="1" height="1" fill="#000000" />
<rect x="57" y="51" width="3" height="1" fill="#FFFFFF" />
<rect x="46" y="52" width="8" height="7" fill="#000000" />
<rect x="54" y="52" width="3" height="1" fill="#FFFFFF" />
<rect x="57" y="52" width="3" height="1" fill="#000000" />
<rect x="54" y="53" width="3" height="6" fill="#000000" />
<rect x="57" y="53" width="1" height="1" fill="#FFFFFF" />
<rect x="58" y="53" width="2" height="1" fill="#000000" />
<rect x="57" y="54" width="1" height="5" fill="#000000" />
<rect x="58" y="54" width="4" height="1" fill="#FFFFFF" />
<rect x="58" y="55" width="4" height="4" fill="#000000" />
<rect x="1" y="59" width="88" height="1" fill="#FFFFFF" />
</svg>